<svg width="40" height="40" viewBox="0 0 40 40" fill="none" xmlns="http://www.w3.org/2000/svg">
<path d="M0 20C0 8.95431 8.95431 0 20 0C31.0457 0 40 8.95431 40 20C40 31.0457 31.0457 40 20 40C8.95431 40 0 31.0457 0 20Z" fill="#2E3F53"/>
<g clip-path="url(#clip0_4754_2056)">
<path d="M22.9154 26.5625V25.1042C22.9154 24.3306 22.6081 23.5888 22.0611 23.0418C21.5141 22.4948 20.7722 22.1875 19.9987 22.1875H15.6237C14.8501 22.1875 14.1083 22.4948 13.5613 23.0418C13.0143 23.5888 12.707 24.3306 12.707 25.1042V26.5625" stroke="#A3DE23" stroke-width="1.45833" stroke-linecap="round" stroke-linejoin="round"/>
<path d="M17.8112 19.2708C19.422 19.2708 20.7279 17.965 20.7279 16.3542C20.7279 14.7433 19.422 13.4375 17.8112 13.4375C16.2004 13.4375 14.8945 14.7433 14.8945 16.3542C14.8945 17.965 16.2004 19.2708 17.8112 19.2708Z" stroke="#A3DE23" stroke-width="1.45833" stroke-linecap="round" stroke-linejoin="round"/>
<path d="M27.293 26.5624V25.1041C27.2925 24.4579 27.0774 23.8301 26.6815 23.3193C26.2855 22.8086 25.7312 22.4438 25.1055 22.2822" stroke="#A3DE23" stroke-width="1.45833" stroke-linecap="round" stroke-linejoin="round"/>
<path d="M22.918 13.5322C23.5454 13.6929 24.1014 14.0577 24.4985 14.5693C24.8956 15.0809 25.1112 15.7101 25.1112 16.3577C25.1112 17.0054 24.8956 17.6346 24.4985 18.1462C24.1014 18.6578 23.5454 19.0226 22.918 19.1833" stroke="#A3DE23" stroke-width="1.45833" stroke-linecap="round" stroke-linejoin="round"/>
</g>
<defs>
<clipPath id="clip0_4754_2056">
<rect width="17.5" height="17.5" fill="white" transform="translate(11.25 11.25)"/>
</clipPath>
</defs>
</svg>
