<svg width="40" height="40" viewBox="0 0 40 40" fill="none" xmlns="http://www.w3.org/2000/svg">
<path d="M0 20C0 8.95431 8.95431 0 20 0C31.0457 0 40 8.95431 40 20C40 31.0457 31.0457 40 20 40C8.95431 40 0 31.0457 0 20Z" fill="#2E3F53"/>
<g clip-path="url(#clip0_4754_2049)">
<path d="M25.8346 18.5417C25.8346 22.1824 21.7958 25.9741 20.4395 27.1451C20.3132 27.2402 20.1594 27.2915 20.0013 27.2915C19.8432 27.2915 19.6894 27.2402 19.5631 27.1451C18.2068 25.9741 14.168 22.1824 14.168 18.5417C14.168 16.9946 14.7826 15.5109 15.8765 14.4169C16.9705 13.323 18.4542 12.7084 20.0013 12.7084C21.5484 12.7084 23.0321 13.323 24.1261 14.4169C25.2201 15.5109 25.8346 16.9946 25.8346 18.5417Z" stroke="#A3DE23" stroke-width="1.45833" stroke-linecap="round" stroke-linejoin="round"/>
<path d="M20 20.7291C21.2081 20.7291 22.1875 19.7497 22.1875 18.5416C22.1875 17.3335 21.2081 16.3541 20 16.3541C18.7919 16.3541 17.8125 17.3335 17.8125 18.5416C17.8125 19.7497 18.7919 20.7291 20 20.7291Z" stroke="#A3DE23" stroke-width="1.45833" stroke-linecap="round" stroke-linejoin="round"/>
</g>
<defs>
<clipPath id="clip0_4754_2049">
<rect width="17.5" height="17.5" fill="white" transform="translate(11.25 11.25)"/>
</clipPath>
</defs>
</svg>
